<svg width="762" height="151" viewBox="0 0 762 151" fill="none" xmlns="http://www.w3.org/2000/svg">
<path d="M66.6484 38C65.6328 42.2188 62.9766 47.5898 58.6797 54.1133C54.4219 60.6367 50.7109 65.0312 47.5469 67.2969C45.3203 68.8984 43.1328 69.6992 40.9844 69.6992C39.7344 69.6992 36.7266 68.7422 31.9609 66.8281C31.0234 66.4375 30.5547 65.9883 30.5547 65.4805C30.5547 64.6992 31.6289 64.3086 33.7773 64.3086C37.332 64.3086 40.0469 63.5859 41.9219 62.1406C45.6719 59.2891 49.2266 55.3828 52.5859 50.4219C56.8828 44.1328 59.4414 37.9609 60.2617 31.9062C60.7305 28.5859 59.5977 26.5937 56.8633 25.9297C55.6133 25.6562 54.3438 25.6367 53.0547 25.8711C47 26.1836 41.1602 27.5117 35.5352 29.8555C29.0117 53.4102 23.0156 72.2383 17.5469 86.3398C17.8594 86.2227 19.0117 85.5586 21.0039 84.3477C22.1367 83.6836 23.0352 83.3906 23.6992 83.4688C24.832 83.6641 25.9453 84.7969 27.0391 86.8672C27.9375 88.5469 28.3867 89.7969 28.3867 90.6172C28.3867 91.6719 27.7031 92.1406 26.3359 92.0234C25.3594 91.9062 23.7383 92.4531 21.4727 93.6641C19.0117 94.9531 16.9023 96.4766 15.1445 98.2344C14.2852 99.0938 13.3867 99.5234 12.4492 99.5234C11.1602 99.5234 9.57812 98.6641 7.70312 96.9453C6.53125 95.8125 6.02344 94.8359 6.17969 94.0156C6.29688 93.3516 6.92188 92.8828 8.05469 92.6094C17.5859 70.6562 24.6758 50.5781 29.3242 32.375C14.6367 38.9766 7.29297 45.1289 7.29297 50.832C7.29297 51.6523 7.42969 52.4531 7.70312 53.2344C7.78125 53.5469 8.15234 54.543 8.81641 56.2227C8.97266 56.6133 9.05078 56.9844 9.05078 57.3359C9.05078 58.4297 8.62109 58.9766 7.76172 58.9766C6.55078 58.9766 4.22656 55.5781 0.789062 48.7812C0.28125 47.8438 0.0273438 46.9062 0.0273438 45.9688C0.0273438 43.6641 1.47266 41.1641 4.36328 38.4688C6.35547 36.6328 10.1055 34.1328 15.6133 30.9688C21.5508 27.6094 26.8438 25.0703 31.4922 23.3516C31.9609 21.4375 32.1953 19.875 32.1953 18.6641C32.1953 17.1016 32.5859 16.3203 33.3672 16.3203C34.4219 16.3203 36.2773 17.7461 38.9336 20.5977C45.3789 18.7227 49.7344 17.8047 52 17.8438C56.3359 17.9219 59.4219 20.207 61.2578 24.6992C63.6016 26.418 65.1641 27.7656 65.9453 28.7422C66.9219 29.9531 67.4102 31.3984 67.4102 33.0781C67.4102 34.2891 67.1562 35.9297 66.6484 38ZM100.047 60.9102C99.9688 64.3867 99.1289 68.9961 97.5273 74.7383C94.9883 83.8008 91.3945 90.832 86.7461 95.832C84.2852 98.4883 81.5508 99.8164 78.543 99.8164C77.3711 99.8164 75.8672 99.5625 74.0312 99.0547C70.3594 98.8203 67.3711 97.668 65.0664 95.5977C62.5664 93.332 61.3945 90.4219 61.5508 86.8672C61.707 82.7266 63.1328 76.9453 65.8281 69.5234C68.7969 61.4375 71.8828 55.6172 75.0859 52.0625C76.6094 50.3438 77.8594 49.4844 78.8359 49.4844C80.1641 49.4844 82.3125 50.8516 85.2812 53.5859C86.1016 53.1953 87.7812 52.4727 90.3203 51.418C91.6094 50.9883 92.5859 50.7734 93.25 50.7734C94.7734 50.7734 96.4727 52.1992 98.3477 55.0508C99.5586 56.8086 100.125 58.7617 100.047 60.9102ZM93.3086 62.6094C93.582 59.9922 93.7188 58.332 93.7188 57.6289C93.7188 55.9883 93.2109 55.168 92.1953 55.168C91.8047 55.168 91.2969 55.2461 90.6719 55.4023L81.5898 59.0938C80.5352 59.5234 79.9297 59.7383 79.7734 59.7383C79.4609 59.7383 79.1484 59.3672 78.8359 58.625C76.5703 61.3984 74.4609 65.4023 72.5078 70.6367C70.9844 74.7383 69.9297 78.4102 69.3438 81.6523C68.9141 83.8398 68.6992 85.832 68.6992 87.6289C68.6992 93.6445 70.5547 96.5742 74.2656 96.418C75.75 96.3789 77.3516 95.793 79.0703 94.6602C82.3516 92.4336 85.418 87.9805 88.2695 81.3008C91.0039 75.0117 92.6836 68.7812 93.3086 62.6094ZM148.973 55.5195C143.777 65.168 139.891 76.4961 137.312 89.5039C138.406 87.5898 139.734 85.1484 141.297 82.1797C141.492 81.6328 141.805 81.3594 142.234 81.3594C142.82 81.3594 143.113 81.7305 143.113 82.4727C143.113 82.707 143.055 82.9609 142.938 83.2344C140.438 88.9375 138.797 93.332 138.016 96.418C137.547 98.3711 136.922 99.3477 136.141 99.3477C135.359 99.3477 133.836 98.5859 131.57 97.0625C130.359 96.2031 129.949 94.6797 130.34 92.4922C131.98 83.9766 133.953 76.5742 136.258 70.2852C128.719 82.5508 122.391 91.5938 117.273 97.4141C116.141 98.7031 114.91 99.3477 113.582 99.3477C112.488 99.3477 111.199 98.8984 109.715 98C107.02 97.5312 105.672 96.125 105.672 93.7812C105.672 93.3516 105.711 92.8828 105.789 92.375C106.766 81.2031 108.797 71.9258 111.883 64.543C111.219 65.168 110.223 66.0859 108.895 67.2969C108.387 67.7266 107.996 67.8438 107.723 67.6484C107.41 67.4141 107.469 66.9648 107.898 66.3008C110.008 63.2148 111.258 61.1836 111.648 60.207C112.859 57.1602 114.129 54.7969 115.457 53.1172C116.16 52.2578 116.902 51.8281 117.684 51.8281C118.738 51.8281 120.281 52.4531 122.312 53.7031C122.859 54.0547 123.133 54.4062 123.133 54.7578C123.133 54.7578 122.703 55.4023 121.844 56.6914C119.891 59.6602 117.82 64.8945 115.633 72.3945C113.25 80.5195 112.039 87.1406 112 92.2578C112 93.9375 112.352 94.7773 113.055 94.7773C113.68 94.7773 114.695 94.0547 116.102 92.6094C119.109 89.4062 123.465 83.3516 129.168 74.4453C134.207 66.5938 137.254 61.4766 138.309 59.0938C140.066 55.1094 141.492 52.7656 142.586 52.0625C143.289 51.5938 143.914 51.3594 144.461 51.3594C145.008 51.3594 146.062 51.7695 147.625 52.5898C149.188 53.4102 149.969 54.0156 149.969 54.4062C149.969 54.5234 149.832 54.6797 149.559 54.875C149.285 55.0703 149.09 55.2852 148.973 55.5195ZM179.734 51.0664C179.734 52.8242 179.266 55.6367 178.328 59.5039C177.977 60.832 177.586 61.6914 177.156 62.082C176.961 62.2773 176.297 62.5703 175.164 62.9609C173.719 63.5078 172.82 63.7812 172.469 63.7812C171.883 63.7812 171.59 63.3906 171.59 62.6094C171.59 62.1797 171.668 61.6133 171.824 60.9102C172.762 57.043 173.113 54.3672 172.879 52.8828C172.684 51.3594 173.133 50.4023 174.227 50.0117C176.141 49.0352 177.371 48.5469 177.918 48.5469C179.129 48.5469 179.734 49.3867 179.734 51.0664ZM170.359 84.6992C170.477 89.3867 167.879 92.5898 162.566 94.3086C161.902 95.9492 161.277 97.082 160.691 97.707C159.793 98.6445 158.465 99.1914 156.707 99.3477C155.574 99.4258 154.363 99.3672 153.074 99.1719C150.77 98.8203 147.938 98.3906 144.578 97.8828C143.641 97.7266 143.074 97.1602 142.879 96.1836C143.035 95.1289 144.129 94.5039 146.16 94.3086C148.934 94.1133 153.035 93.625 158.465 92.8438C160.496 92.375 161.941 91.2227 162.801 89.3867C163.309 88.4492 163.562 87.2969 163.562 85.9297C163.562 83.4688 162.332 79.1328 159.871 72.9219C157.449 66.8672 156.316 62.8242 156.473 60.793C156.785 55.9102 161.297 52.5117 170.008 50.5977C170.867 50.4023 171.297 50.7148 171.297 51.5352C171.297 52.0039 170.984 52.375 170.359 52.6484C166.141 54.4844 164.031 56.75 164.031 59.4453C164.031 60.5 164.227 61.8281 164.617 63.4297C165.008 64.9922 166.18 68.7812 168.133 74.7969C169.578 79.1328 170.32 82.4336 170.359 84.6992ZM222.098 58.9766C218.504 68.9375 216.023 77.2969 214.656 84.0547C215.242 83.5078 216.004 82.668 216.941 81.5352C217.918 80.4023 218.523 79.7383 218.758 79.543C219.305 78.8398 219.891 78.4883 220.516 78.4883C221.102 78.4883 221.395 78.7812 221.395 79.3672C221.395 79.7188 221.238 80.1289 220.926 80.5977C217.254 86.0273 214.812 91.5156 213.602 97.0625C213.25 98.625 212.723 99.4062 212.02 99.4062C211.355 99.4062 210.125 98.7812 208.328 97.5312C207.273 96.8281 206.668 96.2422 206.512 95.7734C206.316 95.3438 206.316 94.4844 206.512 93.1953C208.152 83.2734 210.203 75.0312 212.664 68.4688C209.266 73.9766 204.637 80.0703 198.777 86.75C193.66 92.5703 189.969 96.2812 187.703 97.8828C186.062 99.0156 184.812 99.582 183.953 99.582C183.25 99.582 182.176 99.0156 180.73 97.8828C178.66 96.6328 177.625 94.9141 177.625 92.7266C177.625 92.2969 177.664 91.8086 177.742 91.2617C178.445 85.4805 180.984 78.7617 185.359 71.1055C189.734 63.4102 194.754 56.9258 200.418 51.6523C202.254 49.9336 203.895 49.0938 205.34 49.1328C206.746 49.2109 209.422 51.0664 213.367 54.6992C213.719 55.0117 213.895 55.3438 213.895 55.6953C213.895 56.3203 213.484 56.6328 212.664 56.6328C212.352 56.6328 212.059 56.5742 211.785 56.457C209.012 55.2852 206.785 55.3242 205.105 56.5742C201.434 59.2695 197.371 64.0156 192.918 70.8125C187.762 78.625 184.656 85.6562 183.602 91.9062C183.562 92.1797 183.543 92.4336 183.543 92.668C183.543 93.6445 183.934 94.1328 184.715 94.1328C186.043 94.1328 187.625 93.2148 189.461 91.3789C193.836 87.1211 198.523 81.7695 203.523 75.3242C208.641 68.6445 211.922 63.6055 213.367 60.207C214.422 57.707 215.105 55.9492 215.418 54.9336C215.926 53.1758 216.473 52.2969 217.059 52.2969C217.645 52.2969 219.012 53.0977 221.16 54.6992C222.059 55.3633 222.547 55.9688 222.625 56.5156C222.703 56.9844 222.527 57.8047 222.098 58.9766ZM300.32 7.0625C300.789 7.41406 301.023 7.80469 301.023 8.23438C301.023 8.97656 300.555 9.34766 299.617 9.34766C299.266 9.34766 298.895 9.25 298.504 9.05469C296.668 8.15625 295.301 7.70703 294.402 7.70703C291.98 7.70703 289.305 10.0898 286.375 14.8555C275.633 32.3945 267.801 55.7539 262.879 84.9336C263.895 83.957 265.262 82.4336 266.98 80.3633C267.996 79.1523 268.738 78.5469 269.207 78.5469C270.262 78.5469 270.359 79.1523 269.5 80.3633C265.75 85.5586 263.27 91.1641 262.059 97.1797C261.59 98.625 261.004 99.3477 260.301 99.3477C259.949 99.3477 259.52 99.1719 259.012 98.8203C257.059 97.4922 255.965 96.7109 255.73 96.4766C254.949 95.7344 254.559 94.7383 254.559 93.4883C254.559 92.8242 254.656 92.043 254.852 91.1445C256.531 82.1211 257.918 75.4023 259.012 70.9883C255.184 76.4961 250.848 82.0039 246.004 87.5117C241.199 92.9805 237.703 96.4375 235.516 97.8828C233.836 99.0156 232.586 99.582 231.766 99.582C231.062 99.582 229.988 99.0156 228.543 97.8828C226.004 96.3203 224.734 94.5039 224.734 92.4336C224.734 92.082 224.773 91.6914 224.852 91.2617C225.672 85.4414 228.27 78.7031 232.645 71.0469C237.059 63.3516 242.098 56.8867 247.762 51.6523C249.598 49.9336 251.238 49.0938 252.684 49.1328C254.207 49.2109 256.922 51.0664 260.828 54.6992C261.18 55.0117 261.355 55.3438 261.355 55.6953C261.355 56.3203 260.945 56.6328 260.125 56.6328C259.852 56.6328 259.559 56.5742 259.246 56.457C256.512 55.2852 254.285 55.3242 252.566 56.5742C248.895 59.3086 244.852 64.0547 240.438 70.8125C235.32 78.625 232.312 85.6562 231.414 91.9062C231.219 93.3906 231.609 94.1328 232.586 94.1328C233.875 94.1328 235.457 93.2148 237.332 91.3789C241.668 87.1211 246.336 81.7695 251.336 75.3242C256.453 68.6445 259.734 63.6055 261.18 60.207C262 58.332 262.645 56.5352 263.113 54.8164C267.176 40.4414 271.707 28.1562 276.707 17.9609C280.613 9.99219 284.051 4.64063 287.02 1.90625C288.113 0.851562 289.168 0.324219 290.184 0.324219C291.277 0.324219 292.684 0.96875 294.402 2.25781C296.355 3.85937 298.328 5.46094 300.32 7.0625ZM317.137 58.9766C313.543 68.9375 311.062 77.2969 309.695 84.0547C310.281 83.5078 311.043 82.668 311.98 81.5352C312.957 80.4023 313.562 79.7383 313.797 79.543C314.344 78.8398 314.93 78.4883 315.555 78.4883C316.141 78.4883 316.434 78.7812 316.434 79.3672C316.434 79.7188 316.277 80.1289 315.965 80.5977C312.293 86.0273 309.852 91.5156 308.641 97.0625C308.289 98.625 307.762 99.4062 307.059 99.4062C306.395 99.4062 305.164 98.7812 303.367 97.5312C302.312 96.8281 301.707 96.2422 301.551 95.7734C301.355 95.3438 301.355 94.4844 301.551 93.1953C303.191 83.2734 305.242 75.0312 307.703 68.4688C304.305 73.9766 299.676 80.0703 293.816 86.75C288.699 92.5703 285.008 96.2812 282.742 97.8828C281.102 99.0156 279.852 99.582 278.992 99.582C278.289 99.582 277.215 99.0156 275.77 97.8828C273.699 96.6328 272.664 94.9141 272.664 92.7266C272.664 92.2969 272.703 91.8086 272.781 91.2617C273.484 85.4805 276.023 78.7617 280.398 71.1055C284.773 63.4102 289.793 56.9258 295.457 51.6523C297.293 49.9336 298.934 49.0938 300.379 49.1328C301.785 49.2109 304.461 51.0664 308.406 54.6992C308.758 55.0117 308.934 55.3438 308.934 55.6953C308.934 56.3203 308.523 56.6328 307.703 56.6328C307.391 56.6328 307.098 56.5742 306.824 56.457C304.051 55.2852 301.824 55.3242 300.145 56.5742C296.473 59.2695 292.41 64.0156 287.957 70.8125C282.801 78.625 279.695 85.6562 278.641 91.9062C278.602 92.1797 278.582 92.4336 278.582 92.668C278.582 93.6445 278.973 94.1328 279.754 94.1328C281.082 94.1328 282.664 93.2148 284.5 91.3789C288.875 87.1211 293.562 81.7695 298.562 75.3242C303.68 68.6445 306.961 63.6055 308.406 60.207C309.461 57.707 310.145 55.9492 310.457 54.9336C310.965 53.1758 311.512 52.2969 312.098 52.2969C312.684 52.2969 314.051 53.0977 316.199 54.6992C317.098 55.3633 317.586 55.9688 317.664 56.5156C317.742 56.9844 317.566 57.8047 317.137 58.9766ZM436.492 23.2344C437 23.9766 437.254 24.6211 437.254 25.168C437.254 25.9492 435.555 27.4727 432.156 29.7383C427.352 35.4414 420.848 45.0898 412.645 58.6836C403.855 73.293 397.762 84.875 394.363 93.4297C394.559 94.2891 394.656 94.9531 394.656 95.4219C394.656 96.7109 393.426 97.9219 390.965 99.0547C389.988 99.5234 389.129 99.7578 388.387 99.7578C387.41 99.7578 386.121 98.8594 384.52 97.0625C383.895 96.3203 383.582 95.5586 383.582 94.7773C383.582 93.6445 384.129 92.5898 385.223 91.6133C384.988 78.5664 383.25 65.5781 380.008 52.6484C377.117 41.2031 373.973 33.0391 370.574 28.1562C369.402 26.4375 367.84 25.5781 365.887 25.5781C363.777 25.5781 360.75 27.043 356.805 29.9727C356.375 30.2852 355.867 30.4414 355.281 30.4414C354.148 30.4414 353.582 30.0312 353.582 29.2109C353.582 28.7422 353.895 28.1953 354.52 27.5703C357.84 24.2109 362 21.125 367 18.3125C368.758 17.2969 370.184 16.7891 371.277 16.7891C373.035 16.7891 374.812 18.0977 376.609 20.7148C384.617 32.4727 390.164 53.3906 393.25 83.4688C395.984 77.9609 401.16 68.4688 408.777 54.9922C415.77 42.5703 419.754 35.6758 420.73 34.3086C419.988 34.4258 419.207 33.6836 418.387 32.082C417.566 30.4805 417.156 28.8984 417.156 27.3359C417.156 26.0859 417.527 25.4609 418.27 25.4609C419.168 25.5 420.066 25.5195 420.965 25.5195C422.02 25.2461 423.387 24.3672 425.066 22.8828C426.199 21.9062 427.312 20.9102 428.406 19.8945C429.539 19.1133 430.398 18.7227 430.984 18.7227C432.547 18.7227 434.383 20.2266 436.492 23.2344ZM448.973 32.4922C449.598 32.9609 449.91 33.4883 449.91 34.0742C449.91 35.207 448.23 36.9648 444.871 39.3477C442.645 40.8711 440.496 41.418 438.426 40.9883C437.254 40.7539 436.238 40.3242 435.379 39.6992C435.105 39.4648 434.891 39.2305 434.734 38.9961C434.617 38.7227 434.598 38.5078 434.676 38.3516C434.793 38.1953 435.027 38.1562 435.379 38.2344C438.973 35.1094 441.336 32.8633 442.469 31.4961C443.367 30.4805 444.012 29.9727 444.402 29.9727C445.105 29.9727 446.629 30.8125 448.973 32.4922ZM440.711 58.1562C439.773 63.4297 437.332 72.1992 433.387 84.4648C434.52 83.4492 436.082 81.5938 438.074 78.8984C438.348 78.5469 438.621 78.3711 438.895 78.3711C439.52 78.3711 439.598 78.918 439.129 80.0117C438.934 80.4414 437.293 83.1172 434.207 88.0391C431.863 91.7891 430.145 95.1094 429.051 98C428.699 98.8984 428.055 99.3477 427.117 99.3477C426.18 99.3477 424.91 98.8984 423.309 98C422.293 97.4531 421.785 97.043 421.785 96.7695C421.785 96.5352 422 96.0273 422.43 95.2461C424.539 91.5352 426.883 85.3242 429.461 76.6133C431.922 68.1758 433.309 61.9062 433.621 57.8047C433.738 56.0469 433.562 55.168 433.094 55.168C432.742 55.168 432.117 55.5977 431.219 56.457L427.586 59.8555C426.297 61.0273 425.652 61.0859 425.652 60.0312C425.652 59.7188 425.828 59.3281 426.18 58.8594C428.016 56.2812 429.969 53.8398 432.039 51.5352C432.664 50.8711 433.27 50.5391 433.855 50.5391C434.48 50.5391 435.398 50.9688 436.609 51.8281C438.406 52.2969 439.402 52.5898 439.598 52.707C440.496 53.2539 440.945 54.2695 440.945 55.7539C440.945 56.457 440.867 57.2578 440.711 58.1562ZM491.98 61.9062C491.512 68.5078 489.773 75.5977 486.766 83.1758C483.953 90.2461 481.18 95.0703 478.445 97.6484C476.883 99.0938 475.301 99.8164 473.699 99.8164C471.902 99.8164 468.914 98.3711 464.734 95.4805C463.914 94.9336 463.504 94.3672 463.504 93.7812C463.504 93.0391 464.031 92.668 465.086 92.668C465.516 92.668 466.141 92.8047 466.961 93.0781C467.781 93.3516 468.445 93.4883 468.953 93.4883C471.805 93.4883 474.363 91.6719 476.629 88.0391C478.543 84.9141 480.359 80.7148 482.078 75.4414C484.148 68.8789 485.047 63.2344 484.773 58.5078C484.656 56.2422 483.895 55.1094 482.488 55.1094C481.238 55.1094 479.715 55.9688 477.918 57.6875C465.262 69.7969 456.355 84.2695 451.199 101.105C448.27 110.676 446.316 119.543 445.34 127.707C445.301 127.98 444.773 134.758 443.758 148.039C443.602 149.953 443.133 150.91 442.352 150.91C441.531 150.91 440.066 149.953 437.957 148.039C436.434 146.633 435.848 144.914 436.199 142.883C437.918 123.43 442.625 101.77 450.32 77.9023C456.375 59.2305 461.18 47.1211 464.734 41.5742C466.844 38.332 468.719 36.75 470.359 36.8281C472 36.8672 475.125 38.332 479.734 41.2227C480.359 41.6133 480.672 42.0234 480.672 42.4531C480.672 43.0391 480.203 43.332 479.266 43.332C479.031 43.332 478.641 43.293 478.094 43.2148C477.547 43.0977 477.137 43.0391 476.863 43.0391C474.402 43.0391 471.844 45.1289 469.188 49.3086C467.625 51.6914 465.652 55.6953 463.27 61.3203C460.887 66.9453 459.168 71.5742 458.113 75.207C463.855 65.832 470.535 57.7852 478.152 51.0664C479.324 50.0508 480.379 49.543 481.316 49.543C481.746 49.543 482.82 50.1289 484.539 51.3008C489.852 53.1758 492.332 56.7109 491.98 61.9062ZM524.266 14.5039C524.539 14.9336 524.148 16.1641 523.094 18.1953C519.773 24.4453 517.293 30.4023 515.652 36.0664C515.926 36.2617 515.887 36.6719 515.535 37.2969C514.207 38.7812 512.605 39.3281 510.73 38.9375C510.105 38.8984 509.793 38.4102 509.793 37.4727C509.793 36.3008 510.379 33.6836 511.551 29.6211C513.27 23.5664 514.871 19.6016 516.355 17.7266C517.098 16.7891 517.977 16.1445 518.992 15.793C522.312 14.6211 524.07 14.1914 524.266 14.5039ZM593.875 26.457C592.352 31.8086 590.281 36.457 587.664 40.4023C586.492 42.1602 585.379 43.0391 584.324 43.0391C583.309 43.0391 581.531 42.1992 578.992 40.5195C578.211 40.0117 577.82 39.4844 577.82 38.9375C577.82 38.1172 578.504 37.5312 579.871 37.1797C580.887 36.8672 582.039 35.0898 583.328 31.8477C584.539 28.7617 585.145 26.3398 585.145 24.582C585.145 22.7461 584.422 21.8281 582.977 21.8281C582.469 21.8281 581.824 21.9062 581.043 22.0625C579.52 22.2969 576.238 23.332 571.199 25.168C570.613 25.3633 570.086 25.4609 569.617 25.4609C568.445 25.4609 567.859 25.0703 567.859 24.2891C567.859 23.5469 568.465 22.8828 569.676 22.2969C574.051 20.1094 578.367 18.2734 582.625 16.7891C583.992 16.2812 584.969 16.0273 585.555 16.0273C586.453 16.0273 587.625 17.2773 589.07 19.7773C591.258 20.4414 592.605 20.9297 593.113 21.2422C593.973 21.75 594.402 22.5312 594.402 23.5859C594.402 24.3281 594.227 25.2852 593.875 26.457ZM576.355 80.2461C576.355 87.3164 572.762 93 565.574 97.2969C563.504 100.539 560.828 102.141 557.547 102.102C551.727 102.023 545.242 99.4258 538.094 94.3086C531.961 89.9336 527.723 85.7148 525.379 81.6523C523.152 77.8633 522.039 75.4805 522.039 74.5039C522.039 73.293 522.918 71.9258 524.676 70.4023C526.316 68.957 527.605 68.2344 528.543 68.2344C529.441 68.2344 529.891 68.8203 529.891 69.9922C529.891 70.5 529.793 71.125 529.598 71.8672C531.668 77.4922 536.043 82.7266 542.723 87.5703C549.402 92.4141 555.457 94.8164 560.887 94.7773C565.691 94.7383 568.094 91.457 568.094 84.9336C568.094 81.3398 565.281 74.1719 559.656 63.4297C554.07 52.6484 551.277 44.9336 551.277 40.2852C551.277 37.2383 552.137 34.5234 553.855 32.1406C555.301 30.1484 557.84 27.7852 561.473 25.0508C562.137 24.543 562.801 24.2891 563.465 24.2891C564.52 24.2891 565.047 24.7383 565.047 25.6367C565.047 26.2617 564.695 26.9063 563.992 27.5703C560.984 30.4219 559.48 33.8984 559.48 38C559.48 42.5703 562.293 50.1094 567.918 60.6172C573.543 71.125 576.355 77.668 576.355 80.2461ZM645.027 67.7656C645.574 68.2734 645.848 68.8203 645.848 69.4062C645.848 70.5781 645.32 71.1641 644.266 71.1641C644.031 71.1641 643.25 70.7344 641.922 69.875C641.297 69.4453 640.77 69.1328 640.34 68.9375C635.418 82.4922 631.219 91.6914 627.742 96.5352C626.414 98.4102 625.047 99.3477 623.641 99.3477C623.016 99.3477 621.648 99.0156 619.539 98.3516C617.742 97.7656 616.629 97.2578 616.199 96.8281C615.77 96.3984 615.32 95.3047 614.852 93.5469C613.094 86.5156 612.215 80.7539 612.215 76.2617C610.301 78.9961 607.098 83.0391 602.605 88.3906C598.348 93.5078 595.75 96.75 594.812 98.1172C594.344 98.8594 593.68 99.2305 592.82 99.2305C591.727 99.2305 590.008 98.332 587.664 96.5352C587.078 96.1055 586.785 95.6953 586.785 95.3047C586.785 94.7188 587.586 93.8203 589.188 92.6094C590.516 88.7422 591.668 83.7812 592.645 77.7266C593.582 71.7891 594.051 66.6914 594.051 62.4336C594.051 60.2852 593.914 58.625 593.641 57.4531C592.82 58.2734 591.102 60.3828 588.484 63.7812C588.055 64.3672 587.547 64.6602 586.961 64.6602C586.102 64.6602 585.672 64.25 585.672 63.4297C585.672 63.0781 585.809 62.7266 586.082 62.375C587.293 60.8125 589.012 58.293 591.238 54.8164C591.941 53.4883 592.859 52.5898 593.992 52.1211C594.266 52.0039 595.75 51.6133 598.445 50.9492C599.148 50.793 599.695 50.7148 600.086 50.7148C600.789 50.7148 601.219 51.0859 601.375 51.8281C601.492 52.375 601.551 53.7227 601.551 55.8711C601.551 68.1367 600.203 78.8203 597.508 87.9219C604.656 80.8906 609.52 74.0547 612.098 67.4141C612.41 63.7031 612.723 61.0469 613.035 59.4453C613.543 56.75 614.363 54.4453 615.496 52.5312C616.434 50.8516 617.469 50.0117 618.602 50.0117C619.539 50.0117 620.984 50.6953 622.938 52.0625C624.031 52.8047 624.578 53.4883 624.578 54.1133C624.578 54.4648 624.266 55.5 623.641 57.2188C622.469 60.5 621.023 63.332 619.305 65.7148C618.953 68.293 618.777 70.9688 618.777 73.7422C618.777 79.4844 619.559 85.4414 621.121 91.6133C621.551 93.332 622.098 94.1914 622.762 94.1914C623.504 94.1914 624.402 93.1758 625.457 91.1445C631.277 79.8945 634.871 71.418 636.238 65.7148C635.73 65.0508 635.203 64.3477 634.656 63.6055C634.109 62.8242 633.836 62.0039 633.836 61.1445C633.836 60.3633 634.031 59.4453 634.422 58.3906C634.812 56.5938 635.203 54.8164 635.594 53.0586C636.219 50.7539 637.254 49.6016 638.699 49.6016C639.871 49.6016 641.453 50.168 643.445 51.3008C644.617 52.0039 645.203 53.1367 645.203 54.6992C645.203 55.9883 644.754 57.7266 643.855 59.9141C643.191 61.4766 642.527 63.0586 641.863 64.6602C642.215 65.0898 643.27 66.125 645.027 67.7656ZM672.801 32.4922C673.426 32.9609 673.738 33.4883 673.738 34.0742C673.738 35.207 672.059 36.9648 668.699 39.3477C666.473 40.8711 664.324 41.418 662.254 40.9883C661.082 40.7539 660.066 40.3242 659.207 39.6992C658.934 39.4648 658.719 39.2305 658.562 38.9961C658.445 38.7227 658.426 38.5078 658.504 38.3516C658.621 38.1953 658.855 38.1562 659.207 38.2344C662.801 35.1094 665.164 32.8633 666.297 31.4961C667.195 30.4805 667.84 29.9727 668.23 29.9727C668.934 29.9727 670.457 30.8125 672.801 32.4922ZM664.539 58.1562C663.602 63.4297 661.16 72.1992 657.215 84.4648C658.348 83.4492 659.91 81.5938 661.902 78.8984C662.176 78.5469 662.449 78.3711 662.723 78.3711C663.348 78.3711 663.426 78.918 662.957 80.0117C662.762 80.4414 661.121 83.1172 658.035 88.0391C655.691 91.7891 653.973 95.1094 652.879 98C652.527 98.8984 651.883 99.3477 650.945 99.3477C650.008 99.3477 648.738 98.8984 647.137 98C646.121 97.4531 645.613 97.043 645.613 96.7695C645.613 96.5352 645.828 96.0273 646.258 95.2461C648.367 91.5352 650.711 85.3242 653.289 76.6133C655.75 68.1758 657.137 61.9062 657.449 57.8047C657.566 56.0469 657.391 55.168 656.922 55.168C656.57 55.168 655.945 55.5977 655.047 56.457L651.414 59.8555C650.125 61.0273 649.48 61.0859 649.48 60.0312C649.48 59.7188 649.656 59.3281 650.008 58.8594C651.844 56.2812 653.797 53.8398 655.867 51.5352C656.492 50.8711 657.098 50.5391 657.684 50.5391C658.309 50.5391 659.227 50.9688 660.438 51.8281C662.234 52.2969 663.23 52.5898 663.426 52.707C664.324 53.2539 664.773 54.2695 664.773 55.7539C664.773 56.457 664.695 57.2578 664.539 58.1562ZM704.031 23.2344C705.125 23.8203 705.672 24.4844 705.672 25.2266C705.672 25.7344 705.301 25.9883 704.559 25.9883C704.402 25.9883 704.148 25.9688 703.797 25.9297C703.484 25.8516 703.25 25.8125 703.094 25.8125C701.609 25.8125 699.812 27.4336 697.703 30.6758C695.828 33.5664 693.23 39.8555 689.91 49.543C689.598 50.4023 689.48 50.9102 689.559 51.0664C689.676 51.3398 690.184 51.4961 691.082 51.5352C693.387 51.7305 696.473 51.6523 700.34 51.3008C701.668 51.1836 702.332 51.75 702.332 53C702.332 53.8594 701.824 54.3867 700.809 54.582C699.988 54.6992 695.672 55.0508 687.859 55.6367C683.172 69.3477 680.32 80.9492 679.305 90.4414C679.266 90.9492 679.246 91.3984 679.246 91.7891C679.246 93.1172 679.578 93.7812 680.242 93.7812C681.297 93.7812 684.48 91.2227 689.793 86.1055C690.418 85.4805 691.023 85.168 691.609 85.168C692.117 85.168 692.43 85.3828 692.547 85.8125C692.664 86.2812 692.488 86.8281 692.02 87.4531C688.855 91.6328 685.75 95.1875 682.703 98.1172C681.414 99.3281 680.34 99.9336 679.48 99.9336C678.621 99.9336 677.293 99.25 675.496 97.8828C673.27 97.2969 672.156 96.125 672.156 94.3672C672.156 94.0938 672.195 93.7812 672.273 93.4297C673.719 83.3516 676.551 70.9492 680.77 56.2227C678.699 55.9492 676.824 55.6758 675.145 55.4023C674.402 55.2852 674.031 54.8164 674.031 53.9961C674.031 53.0977 674.422 52.5508 675.203 52.3555C675.984 52.1602 677.43 51.7305 679.539 51.0664C680.828 50.6367 682.078 50.0508 683.289 49.3086C687.469 36.3789 690.75 28 693.133 24.1719C694.5 21.9844 695.965 20.8906 697.527 20.8906C699.012 20.8906 701.18 21.6719 704.031 23.2344ZM729.52 81.3008C720.027 93.4492 713.348 99.5234 709.48 99.5234C707.645 99.5234 705.32 98.2539 702.508 95.7148C699.578 94.3477 698.113 92.5117 698.113 90.207C698.113 89.7773 698.152 89.3281 698.23 88.8594C698.934 83.5078 700.359 77.5898 702.508 71.1055C701.062 70.3633 700.34 69.6602 700.34 68.9961C700.34 68.4492 700.75 68.1758 701.57 68.1758C702.195 68.1758 702.84 68.3516 703.504 68.7031C706.98 60.8906 710.105 55.3438 712.879 52.0625C714.676 49.875 716.297 48.7812 717.742 48.7812C718.406 48.7812 720.047 49.3477 722.664 50.4805C722.469 49.3086 722.801 48.625 723.66 48.4297C723.699 48.4297 724.617 48.4297 726.414 48.4297C728.094 48.4297 728.934 48.7227 728.934 49.3086C728.934 49.4258 728.875 49.7578 728.758 50.3047C728.641 50.8516 728.582 51.3594 728.582 51.8281C728.582 53.2344 728.602 54.9727 728.641 57.043C728.68 59.1133 728.699 60.5 728.699 61.2031C728.699 66.0469 727.371 69.4258 724.715 71.3398C722.293 73.0977 719.559 73.9766 716.512 73.9766C714.91 73.9766 712.254 73.5469 708.543 72.6875C707.879 73.8984 707.137 76.2617 706.316 79.7773C705.223 84.2305 704.715 88.1758 704.793 91.6133C704.832 93.6445 705.477 94.6602 706.727 94.6602C707.195 94.6602 707.801 94.543 708.543 94.3086C713.074 92.707 719.383 87.8242 727.469 79.6602C727.977 79.1523 728.484 78.8984 728.992 78.8984C729.734 78.8984 730.105 79.25 730.105 79.9531C730.105 80.3828 729.91 80.832 729.52 81.3008ZM722.664 55.4023C722.664 53.8789 722.332 53.1172 721.668 53.1172C721.238 53.1172 720.613 53.4297 719.793 54.0547C715.965 57.1406 712.605 62.5508 709.715 70.2852C710.496 70.4023 711.863 70.5195 713.816 70.6367C716.98 70.7539 719.344 70.0312 720.906 68.4688C722.078 67.2969 722.723 65.3633 722.84 62.668C722.723 64.6602 722.664 62.2383 722.664 55.4023ZM761.922 51.0664C761.922 52.8242 761.453 55.6367 760.516 59.5039C760.164 60.832 759.773 61.6914 759.344 62.082C759.148 62.2773 758.484 62.5703 757.352 62.9609C755.906 63.5078 755.008 63.7812 754.656 63.7812C754.07 63.7812 753.777 63.3906 753.777 62.6094C753.777 62.1797 753.855 61.6133 754.012 60.9102C754.949 57.043 755.301 54.3672 755.066 52.8828C754.871 51.3594 755.32 50.4023 756.414 50.0117C758.328 49.0352 759.559 48.5469 760.105 48.5469C761.316 48.5469 761.922 49.3867 761.922 51.0664ZM752.547 84.6992C752.664 89.3867 750.066 92.5898 744.754 94.3086C744.09 95.9492 743.465 97.082 742.879 97.707C741.98 98.6445 740.652 99.1914 738.895 99.3477C737.762 99.4258 736.551 99.3672 735.262 99.1719C732.957 98.8203 730.125 98.3906 726.766 97.8828C725.828 97.7266 725.262 97.1602 725.066 96.1836C725.223 95.1289 726.316 94.5039 728.348 94.3086C731.121 94.1133 735.223 93.625 740.652 92.8438C742.684 92.375 744.129 91.2227 744.988 89.3867C745.496 88.4492 745.75 87.2969 745.75 85.9297C745.75 83.4688 744.52 79.1328 742.059 72.9219C739.637 66.8672 738.504 62.8242 738.66 60.793C738.973 55.9102 743.484 52.5117 752.195 50.5977C753.055 50.4023 753.484 50.7148 753.484 51.5352C753.484 52.0039 753.172 52.375 752.547 52.6484C748.328 54.4844 746.219 56.75 746.219 59.4453C746.219 60.5 746.414 61.8281 746.805 63.4297C747.195 64.9922 748.367 68.7812 750.32 74.7969C751.766 79.1328 752.508 82.4336 752.547 84.6992Z" fill="#DF5727"/>
</svg>
